HIERARCHY
ROOT hip
{
  OFFSET 0 0 0
  CHANNELS 6 Xposition Yposition Zposition Zrotation Yrotation Xrotation
  JOINT abdomen
  {
    OFFSET 0 20.6881 -0.73152
    CHANNELS 3 Zrotation Xrotation Yrotation
    JOINT chest
    {
      OFFSET 0 11.7043 -0.48768
      CHANNELS 3 Zrotation Xrotation Yrotation
      JOINT neck
      {
        OFFSET 0 22.1894 -2.19456
        CHANNELS 3 Zrotation Xrotation Yrotation
        JOINT head
        {
          OFFSET -0.24384 7.07133 1.2192
          CHANNELS 3 Zrotation Xrotation Yrotation
          JOINT leftEye
          {
            OFFSET 4.14528 8.04674 8.04672
            CHANNELS 3 Zrotation Xrotation Yrotation
            End Site
            {
              OFFSET 1 0 0
            }
          }
          JOINT rightEye
          {
            OFFSET -3.6576 8.04674 8.04672
            CHANNELS 3 Zrotation Xrotation Yrotation
            End Site
            {
              OFFSET 1 0 0
            }
          }
        }
      }
      JOINT rCollar
      {
        OFFSET -2.68224 19.2634 -4.8768
        CHANNELS 3 Zrotation Xrotation Yrotation
        JOINT rShldr
        {
          OFFSET -8.77824 -1.95073 1.46304
          CHANNELS 3 Zrotation Xrotation Yrotation
          JOINT rForeArm
          {
            OFFSET -28.1742 -1.7115 0.48768
            CHANNELS 3 Zrotation Xrotation Yrotation
            JOINT rHand
            {
              OFFSET -22.5879 0.773209 7.07136
              CHANNELS 3 Zrotation Xrotation Yrotation
              JOINT rThumb1
              {
                OFFSET -1.2192 -0.487915 3.41376
                CHANNELS 3 Zrotation Xrotation Yrotation
                JOINT rThumb2
                {
                  OFFSET -3.37035 -0.52449 3.41376
                  CHANNELS 3 Zrotation Xrotation Yrotation
                  End Site
                  {
                    OFFSET -1.78271 -1.18214 1.43049
                  }
                }
              }
              JOINT rIndex1
              {
                OFFSET -7.75947 0.938293 5.60832
                CHANNELS 3 Zrotation Xrotation Yrotation
                JOINT rIndex2
                {
                  OFFSET -2.54057 -0.884171 1.56538
                  CHANNELS 3 Zrotation Xrotation Yrotation
                  End Site
                  {
                    OFFSET -1.62519 -0.234802 1.16502
                  }
                }
              }
              JOINT rMid1
              {
                OFFSET -8.24714 1.18213 3.41376
                CHANNELS 3 Zrotation Xrotation Yrotation
                JOINT rMid2
                {
                  OFFSET -3.10165 -0.590103 1.0647
                  CHANNELS 3 Zrotation Xrotation Yrotation
                  End Site
                  {
                    OFFSET -2.48547 -0.328903 0.83742
                  }
                }
              }
              JOINT rRing1
              {
                OFFSET -8.82822 0.546677 1.51678
                CHANNELS 3 Zrotation Xrotation Yrotation
                JOINT rRing2
                {
                  OFFSET -2.60934 -0.819778 -0.0198488
                  CHANNELS 3 Zrotation Xrotation Yrotation
                  End Site
                  {
                    OFFSET -2.33842 -0.294052 0.168128
                  }
                }
              }
              JOINT rPinky1
              {
                OFFSET -8.27202 -0.0477905 -0.4584
                CHANNELS 3 Zrotation Xrotation Yrotation
                JOINT rPinky2
                {
                  OFFSET -1.82734 -0.647385 -0.700984
                  CHANNELS 3 Zrotation Xrotation Yrotation
                  End Site
                  {
                    OFFSET -1.69225 -0.51767 -0.607171
                  }
                }
              }
            }
          }
        }
      }
      JOINT lCollar
      {
        OFFSET 2.68224 19.2634 -4.8768
        CHANNELS 3 Zrotation Xrotation Yrotation
        JOINT lShldr
        {
          OFFSET 8.77824 -1.95073 1.46304
          CHANNELS 3 Zrotation Xrotation Yrotation
          JOINT lForeArm
          {
            OFFSET 28.1742 -1.7115 0.48768
            CHANNELS 3 Zrotation Xrotation Yrotation
            JOINT lHand
            {
              OFFSET 22.5879 0.773209 7.07136
              CHANNELS 3 Zrotation Xrotation Yrotation
              JOINT lThumb1
              {
                OFFSET 1.2192 -0.487915 3.41376
                CHANNELS 3 Zrotation Xrotation Yrotation
                JOINT lThumb2
                {
                  OFFSET 3.37035 -0.52449 3.41376
                  CHANNELS 3 Zrotation Xrotation Yrotation
                  End Site
                  {
                    OFFSET 1.78271 -1.18214 1.43049
                  }
                }
              }
              JOINT lIndex1
              {
                OFFSET 7.75947 0.938293 5.60832
                CHANNELS 3 Zrotation Xrotation Yrotation
                JOINT lIndex2
                {
                  OFFSET 2.54057 -0.884171 1.56538
                  CHANNELS 3 Zrotation Xrotation Yrotation
                  End Site
                  {
                    OFFSET 1.62519 -0.234802 1.16502
                  }
                }
              }
              JOINT lMid1
              {
                OFFSET 8.24714 1.18213 3.41376
                CHANNELS 3 Zrotation Xrotation Yrotation
                JOINT lMid2
                {
                  OFFSET 3.10165 -0.590103 1.0647
                  CHANNELS 3 Zrotation Xrotation Yrotation
                  End Site
                  {
                    OFFSET 2.48547 -0.328903 0.83742
                  }
                }
              }
              JOINT lRing1
              {
                OFFSET 8.82822 0.546677 1.51678
                CHANNELS 3 Zrotation Xrotation Yrotation
                JOINT lRing2
                {
                  OFFSET 2.60934 -0.819778 -0.0198488
                  CHANNELS 3 Zrotation Xrotation Yrotation
                  End Site
                  {
                    OFFSET 2.33842 -0.294052 0.168128
                  }
                }
              }
              JOINT lPinky1
              {
                OFFSET 8.27202 -0.0477905 -0.4584
                CHANNELS 3 Zrotation Xrotation Yrotation
                JOINT lPinky2
                {
                  OFFSET 1.82734 -0.647385 -0.700984
                  CHANNELS 3 Zrotation Xrotation Yrotation
                  End Site
                  {
                    OFFSET 1.69225 -0.51767 -0.607171
                  }
                }
              }
            }
          }
        }
      }
    }
  }
  JOINT rButtock
  {
    OFFSET -8.77824 4.35084 1.2192
    CHANNELS 3 Zrotation Xrotation Yrotation
    JOINT rThigh
    {
      OFFSET 0 -1.70687 -2.19456
      CHANNELS 3 Zrotation Xrotation Yrotation
      JOINT rShin
      {
        OFFSET 0 -36.8199 0.73152
        CHANNELS 3 Zrotation Xrotation Yrotation
        JOINT rFoot
        {
          OFFSET 0.73152 -45.1104 -5.12064
          CHANNELS 3 Zrotation Xrotation Yrotation
          End Site
          {
            OFFSET -1.1221 -3.69964 12.103
          }
        }
      }
    }
  }
  JOINT lButtock
  {
    OFFSET 8.77824 4.35084 1.2192
    CHANNELS 3 Zrotation Xrotation Yrotation
    JOINT lThigh
    {
      OFFSET 0 -1.70687 -2.19456
      CHANNELS 3 Zrotation Xrotation Yrotation
      JOINT lShin
      {
        OFFSET 0 -36.8199 0.73152
        CHANNELS 3 Zrotation Xrotation Yrotation
        JOINT lFoot
        {
          OFFSET -0.73152 -45.1104 -5.12064
          CHANNELS 3 Zrotation Xrotation Yrotation
          End Site
          {
            OFFSET 1.1221 -3.69964 12.103
          }
        }
      }
    }
  }
}
MOTION
Frames:	7
Frame Time:	0.00833333
167.739 63.4434 -152.97 0.0 0.0 0.0 -2.71678 0.00115856 -0.0732857 -0.748363 0.0144115 -0.129492 3.35823e-14 -1.59028e-15 -9.44227e-16 1.01181e-13 3.18055e-15 -2.73484e-15 -0.0 0.0 0.0 -0.0 0.0 0.0 1.6698e-14 1.42876e-16 -3.47873e-16 3.55447e-13 3.34207e-15 -7.15625e-15 6.11601e-12 -1.7173e-12 -2.3218e-13 6.99514e-11 2.39026e-12 -1.67297e-12 1.65012e-10 1.45438e-12 -4.12836e-12 2.84954e-10 2.51582e-12 -7.1316e-12 1.65012e-10 1.45113e-12 -4.13154e-12 7.73091 5.47488 0.417314 1.65012e-10 1.45471e-12 -4.12836e-12 2.90554 0.965183 0.102902 1.65014e-10 1.45411e-12 -4.12518e-12 10.2786 0.731801 0.0259123 1.65002e-10 1.4559e-12 -4.11246e-12 2.22167 -0.733487 -0.20892 1.6699e-14 1.43265e-16 -6.4605e-16 3.52435e-13 3.15571e-15 -8.74653e-15 6.11288e-12 1.92801e-12 -2.29e-13 6.99539e-11 -1.27066e-12 -1.66661e-12 1.65016e-10 1.42204e-12 -4.122e-12 2.8498e-10 2.44903e-12 -7.14035e-12 1.65013e-10 1.42131e-12 -4.11882e-12 -7.73091 5.47488 -0.417314 1.65018e-10 1.42121e-12 -4.13472e-12 -2.90554 0.965183 -0.102902 1.65008e-10 1.42201e-12 -4.12995e-12 -10.2786 0.731801 -0.0259123 1.65021e-10 1.42489e-12 -4.1379e-12 -2.22167 -0.733487 0.20892 -2.03217e-16 0.0 -3.88251e-19 -1.56713 -1.93222 0.00884588 -0.00885245 -2.07862 -0.0728718 -0.495955 3.9993 0.137957 2.03217e-16 0.0 3.88251e-19 -2.56018 -8.62921 0.275794 -0.00720146 10.0513 -0.186836 0.547534 -1.43354 -0.0321033
165.905 60.4445 -158.335 -3.0899 -44.9106 21.9761 -1.20675 15.7652 -0.31816 -1.34555 -0.276825 -0.197288 1.87425 5.22801 0.261183 -2.491 -19.4356 -1.08612 -0.0 0.0 0.0 -0.0 0.0 0.0 1.53835e-13 -2.06106e-14 -4.2543e-14 14.2479 10.5902 9.96035 -27.1595 -24.716 13.6678 0.00692671 1.8463 0.258994 8.93234e-11 1.09097e-10 1.54106e-10 1.564e-10 1.80668e-10 2.6559e-10 8.93239e-11 1.09098e-10 1.54101e-10 7.73091 5.47488 0.417314 8.93234e-11 1.09098e-10 1.54105e-10 2.90554 0.965183 0.102902 8.93258e-11 1.09099e-10 1.54108e-10 10.2786 0.731801 0.0259123 8.93162e-11 1.09099e-10 1.54118e-10 2.22167 -0.733487 -0.20892 1.53824e-13 -2.05661e-14 -4.27822e-14 8.89691 -17.7822 -17.5869 14.7473 -11.9465 -14.4679 -0.449907 -14.9768 1.85437 3.66214e-10 4.44741e-11 2.10928e-10 6.22291e-10 6.82975e-11 3.7465e-10 3.6621e-10 4.44743e-11 2.10934e-10 -7.73091 5.47488 -0.417314 3.66215e-10 4.44734e-11 2.10919e-10 -2.90554 0.965183 -0.102902 3.66207e-10 4.4474e-11 2.10922e-10 -10.2786 0.731801 -0.0259123 3.66219e-10 4.44761e-11 2.10914e-10 -2.22167 -0.733487 0.20892 -2.03217e-16 0.0 -3.88251e-19 -2.98194 -19.3262 0.494283 0.136745 20.6177 0.232099 -1.21536 -3.99955 -4.86861 2.03217e-16 0.0 3.88251e-19 -4.52065 -27.2769 2.91221 0.0219692 27.6575 -0.438903 1.22836 -6.30734 3.51173
165.91 60.445 -158.357 -3.1853 -44.8591 22.1052 0.564695 32.4321 -0.635463 -1.98365 -0.582267 -0.263539 3.82221 10.7545 0.53541 -6.16607 -39.9569 -2.77834 -0.0 0.0 0.0 -0.0 0.0 0.0 3.12028e-13 -4.73449e-14 -9.53172e-14 25.1561 20.6663 21.5687 -38.844 -45.4602 37.8513 -0.00393595 3.79768 0.533641 -4.55927e-12 3.16188e-10 3.38845e-10 -3.2174e-12 5.29422e-10 5.84179e-10 -4.55905e-12 3.16194e-10 3.38838e-10 7.73091 5.47488 0.417314 -4.55938e-12 3.16189e-10 3.38843e-10 2.90554 0.965183 0.102902 -4.55616e-12 3.16193e-10 3.38847e-10 10.2786 0.731801 0.0259123 -4.56423e-12 3.16191e-10 3.38854e-10 2.22167 -0.733487 -0.20892 3.12008e-13 -4.72511e-14 -9.54912e-14 5.67132 -30.7473 -41.1189 23.6474 -21.9749 -31.6355 0.28463 -30.7534 4.28906 5.27983e-10 8.39486e-11 4.15979e-10 8.92395e-10 1.25481e-10 7.37928e-10 5.27978e-10 8.39497e-11 4.15989e-10 -7.73091 5.47488 -0.417314 5.27984e-10 8.39481e-11 4.15976e-10 -2.90554 0.965183 -0.102902 5.27977e-10 8.39483e-11 4.15977e-10 -10.2786 0.731801 -0.0259123 5.27987e-10 8.39497e-11 4.15969e-10 -2.22167 -0.733487 0.20892 -2.03217e-16 0.0 -3.88251e-19 -4.08224 -37.7134 1.20563 -0.0610787 44.6239 0.736097 -3.51498 -12.2847 -10.3699 2.03217e-16 0.0 3.88251e-19 -3.90945 -46.8147 7.37739 0.30098 46.2755 -0.875742 2.6133 -11.3926 7.35703
165.892 60.3888 -158.349 -3.3509 -44.9318 22.2105 2.39034 47.2883 -1.13817 -2.542 -0.85929 -0.332908 5.47507 15.6827 0.810461 -11.3521 -58.1832 -5.83553 -0.0 0.0 0.0 -0.0 0.0 0.0 4.28109e-13 -6.21177e-14 -1.26933e-13 31.0991 27.7092 33.6368 -31.2521 -50.6394 72.3599 -0.0294932 5.53845 0.780221 -6.20534e-11 3.24381e-10 4.70574e-10 -1.00709e-10 5.36973e-10 8.11033e-10 -6.20532e-11 3.24391e-10 4.70566e-10 7.73091 5.47488 0.417314 -6.20537e-11 3.24383e-10 4.70571e-10 2.90554 0.965183 0.102902 -6.20497e-11 3.24389e-10 4.70576e-10 10.2786 0.731801 0.0259123 -6.20563e-11 3.24385e-10 4.70579e-10 2.22167 -0.733487 -0.20892 4.28075e-13 -6.19849e-14 -1.27054e-13 -5.19738 -31.9877 -64.8698 26.4768 -26.3514 -48.8617 2.55397 -44.7019 7.57178 7.68609e-10 1.30578e-10 6.41027e-10 1.29691e-09 1.99994e-10 1.13823e-09 7.68604e-10 1.3058e-10 6.41039e-10 -7.73091 5.47488 -0.417314 7.6861e-10 1.30578e-10 6.41027e-10 -2.90554 0.965183 -0.102902 7.68604e-10 1.30578e-10 6.41027e-10 -10.2786 0.731801 -0.0259123 7.68614e-10 1.30579e-10 6.41019e-10 -2.22167 -0.733487 0.20892 -2.03217e-16 0.0 -3.88251e-19 -4.39287 -54.093 2.35624 -1.1233 65.9984 1.96055 -6.99153 -19.3445 -15.7561 2.03217e-16 0.0 3.88251e-19 2.4979 -63.7196 16.4882 1.09205 62.861 -1.75034 4.44863 -15.8118 10.9549
165.908 60.4904 -158.296 -3.2512 -45.0618 22.1258 4.02778 57.62 -1.90756 -2.89985 -1.06527 -0.410051 6.48756 19.1163 1.06419 -18.2009 -70.7514 -11.0157 -0.0 0.0 0.0 -0.0 0.0 0.0 4.38909e-13 -4.69866e-14 -1.05654e-13 33.1401 31.0165 43.1905 -26.7803 -44.5791 92.6041 -0.0562614 6.75312 0.953552 -2.85761e-11 -1.64672e-10 4.69777e-10 -4.28874e-11 -3.08482e-10 8.0855e-10 -2.85753e-11 -1.6466e-10 4.69768e-10 7.73091 5.47488 0.417314 -2.85769e-11 -1.64668e-10 4.69774e-10 2.90554 0.965183 0.102902 -2.85721e-11 -1.64662e-10 4.69778e-10 10.2786 0.731801 0.0259123 -2.85775e-11 -1.64668e-10 4.69781e-10 2.22167 -0.733487 -0.20892 4.38853e-13 -4.68404e-14 -1.05753e-13 -12.4592 -26.6152 -78.1702 26.8971 -26.0001 -60.8807 5.78997 -54.2769 11.2691 1.20638e-09 1.95096e-10 9.16063e-10 2.03747e-09 3.17833e-10 1.6311e-09 1.20637e-09 1.95098e-10 9.16076e-10 -7.73091 5.47488 -0.417314 1.20638e-09 1.95095e-10 9.16067e-10 -2.90554 0.965183 -0.102902 1.20638e-09 1.95095e-10 9.16065e-10 -10.2786 0.731801 -0.0259123 1.20639e-09 1.95096e-10 9.16057e-10 -2.22167 -0.733487 0.20892 -2.03217e-16 0.0 -3.88251e-19 -3.65979 -65.4692 4.00329 -5.28412 80.7834 6.17873 -10.3032 -23.9793 -19.9517 2.03217e-16 0.0 3.88251e-19 18.6524 -74.3413 34.1211 2.77665 74.3682 -3.4629 6.08264 -18.7929 13.6063
165.925 60.5724 -158.308 -3.3535 -44.9073 22.3545 5.02923 61.6152 -2.75397 -2.97151 -1.17839 -0.505104 6.62553 20.4644 1.28257 -22.3576 -75.6191 -14.459 -0.0 0.0 0.0 -0.0 0.0 0.0 2.45965e-13 3.56375e-14 2.35614e-14 33.2683 31.997 47.5034 -26.8516 -40.7535 97.8588 -0.0688703 7.23445 1.02259 2.00435e-10 -1.76996e-09 2.06585e-10 3.48807e-10 -3.06951e-09 3.51888e-10 2.00437e-10 -1.76995e-09 2.06575e-10 7.73091 5.47488 0.417314 2.00433e-10 -1.76995e-09 2.06582e-10 2.90554 0.965183 0.102902 2.00439e-10 -1.76995e-09 2.06585e-10 10.2786 0.731801 0.0259123 2.00435e-10 -1.76996e-09 2.06588e-10 2.22167 -0.733487 -0.20892 2.45868e-13 3.57552e-14 2.3431e-14 -14.6695 -23.5818 -81.8033 27.015 -25.0672 -65.2882 7.70248 -57.9727 13.3109 2.09786e-09 3.21227e-10 1.35864e-09 3.54932e-09 5.68711e-10 2.42819e-09 2.09785e-09 3.21228e-10 1.35865e-09 -7.73091 5.47488 -0.417314 2.09786e-09 3.21226e-10 1.35865e-09 -2.90554 0.965183 -0.102902 2.09785e-09 3.21226e-10 1.35864e-09 -10.2786 0.731801 -0.0259123 2.09786e-09 3.21228e-10 1.35864e-09 -2.22167 -0.733487 0.20892 -2.03217e-16 0.0 -3.88251e-19 -2.89471 -69.8783 5.0391 -15.9001 86.3249 16.8058 -11.8586 -25.7143 -21.7903 2.03217e-16 0.0 3.88251e-19 32.6379 -77.6359 48.5378 4.37491 78.7778 -5.065 6.8141 -19.9203 14.7093
165.933 60.6304 -158.311 -3.3959 -44.8783 22.4542 5.25474 61.0872 -3.35727 -2.83883 -1.22485 -0.61261 6.15738 20.3226 1.46778 -19.9665 -75.1544 -12.0874 -0.0 0.0 0.0 -0.0 0.0 0.0 -8.98266e-14 1.6525e-13 2.28261e-13 32.7227 32.2028 47.7906 -26.8357 -41.1131 97.1264 -0.0676191 7.19192 1.01647 5.65867e-10 -4.15255e-09 -2.40373e-10 9.73438e-10 -7.16446e-09 -4.22849e-10 5.65872e-10 -4.15255e-09 -2.40382e-10 7.73091 5.47488 0.417314 5.65864e-10 -4.15254e-09 -2.40375e-10 2.90554 0.965183 0.102902 5.6587e-10 -4.15254e-09 -2.40374e-10 10.2786 0.731801 0.0259123 5.65867e-10 -4.15255e-09 -2.40368e-10 2.22167 -0.733487 -0.20892 -8.99772e-14 1.6531e-13 2.28062e-13 -14.3725 -24.1318 -80.8746 26.9959 -25.1814 -64.7897 7.47445 -57.584 13.0714 3.30495e-09 4.89627e-10 1.91624e-09 5.59778e-09 9.1117e-10 3.43426e-09 3.30494e-09 4.89626e-10 1.91625e-09 -7.73091 5.47488 -0.417314 3.30495e-09 4.89624e-10 1.91625e-09 -2.90554 0.965183 -0.102902 3.30494e-09 4.89626e-10 1.91625e-09 -10.2786 0.731801 -0.0259123 3.30495e-09 4.89628e-10 1.91624e-09 -2.22167 -0.733487 0.20892 -2.03217e-16 0.0 -3.88251e-19 -3.08283 -69.3294 4.68754 -12.4775 85.4465 13.3847 -11.7702 -25.54 -21.7355 2.03217e-16 0.0 3.88251e-19 30.5337 -77.3973 46.2673 4.07108 78.1356 -4.76026 6.75012 -19.7725 14.6426
